<?xml version="1.0" standalone="no"?><svg xmlns="http://www.w3.org/2000/svg" viewBox="0 0 1440 320"><path fill="#007AFF" fill-opacity="1" d="M0,128L6.9,160C13.7,192,27,256,41,282.7C54.9,309,69,299,82,272C96,245,110,203,123,192C137.1,181,151,203,165,224C178.3,245,192,267,206,282.7C219.4,299,233,309,247,272C260.6,235,274,149,288,144C301.7,139,315,213,329,213.3C342.9,213,357,139,370,117.3C384,96,398,128,411,154.7C425.1,181,439,203,453,181.3C466.3,160,480,96,494,96C507.4,96,521,160,535,192C548.6,224,562,224,576,202.7C589.7,181,603,139,617,122.7C630.9,107,645,117,658,149.3C672,181,686,235,699,250.7C713.1,267,727,245,741,224C754.3,203,768,181,782,186.7C795.4,192,809,224,823,197.3C836.6,171,850,85,864,74.7C877.7,64,891,128,905,149.3C918.9,171,933,149,946,133.3C960,117,974,107,987,138.7C1001.1,171,1015,245,1029,256C1042.3,267,1056,213,1070,213.3C1083.4,213,1097,267,1111,282.7C1124.6,299,1138,277,1152,256C1165.7,235,1179,213,1193,176C1206.9,139,1221,85,1234,101.3C1248,117,1262,203,1275,202.7C1289.1,203,1303,117,1317,85.3C1330.3,53,1344,75,1358,112C1371.4,149,1385,203,1399,234.7C1412.6,267,1426,277,1433,282.7L1440,288L1440,0L1433.1,0C1426.3,0,1413,0,1399,0C1385.1,0,1371,0,1358,0C1344,0,1330,0,1317,0C1302.9,0,1289,0,1275,0C1261.7,0,1248,0,1234,0C1220.6,0,1207,0,1193,0C1179.4,0,1166,0,1152,0C1138.3,0,1125,0,1111,0C1097.1,0,1083,0,1070,0C1056,0,1042,0,1029,0C1014.9,0,1001,0,987,0C973.7,0,960,0,946,0C932.6,0,919,0,905,0C891.4,0,878,0,864,0C850.3,0,837,0,823,0C809.1,0,795,0,782,0C768,0,754,0,741,0C726.9,0,713,0,699,0C685.7,0,672,0,658,0C644.6,0,631,0,617,0C603.4,0,590,0,576,0C562.3,0,549,0,535,0C521.1,0,507,0,494,0C480,0,466,0,453,0C438.9,0,425,0,411,0C397.7,0,384,0,370,0C356.6,0,343,0,329,0C315.4,0,302,0,288,0C274.3,0,261,0,247,0C233.1,0,219,0,206,0C192,0,178,0,165,0C150.9,0,137,0,123,0C109.7,0,96,0,82,0C68.6,0,55,0,41,0C27.4,0,14,0,7,0L0,0Z"></path></svg>